<?xml version="1.0" encoding="utf-8"?>
<!-- Generator: Adobe Illustrator 24.3.0, SVG Export Plug-In . SVG Version: 6.00 Build 0)  -->
<svg version="1.1" id="Logo" xmlns="http://www.w3.org/2000/svg" xmlns:xlink="http://www.w3.org/1999/xlink" x="0px" y="0px"
	 viewBox="0 0 512 512" style="enable-background:new 0 0 512 512;" xml:space="preserve">
<style type="text/css">
	.st0{fill:#D3DCFB;}
	.st1{fill:#EBF5FC;}
	.st2{fill:#3C58A0;}
	.st3{fill:#2A428C;}
	.st4{fill:#FF4155;}
	.st5{fill:#E80054;}
	.st6{opacity:0.54;}
	.st7{fill:#4FABF7;}
	.st8{fill:#1886EA;}
	.st9{fill:#FDBF00;}
	.st10{fill:#444444;}
	.st11{display:none;fill:#383838;}
	.st12{opacity:0.26;}
	.st13{opacity:0.55;}
	.st14{fill:#515151;}
	.st15{opacity:0.29;}
	.st16{display:none;}
	.st17{display:inline;fill:#F7A226;}
	.st18{fill:#F7A226;}
</style>
<g id="Calendario">
	<path class="st0" d="M291.3,428.8H145.1c-14.1,0-25.6-11.5-25.6-25.6v-25.6h196.5L291.3,428.8z"/>
	<path class="st1" d="M452.3,224v107.5v71.7H145.1c-14.1,0-25.6-11.5-25.6-25.6V224l179.2-64L452.3,224z"/>
	<g>
		<path class="st2" d="M164.7,275.2h-13.6c-3.3,0-6-2.7-6-6v-13.6c0-3.3,2.7-6,6-6h13.6c3.3,0,6,2.7,6,6v13.6
			C170.7,272.5,168,275.2,164.7,275.2z"/>
		<path class="st2" d="M215.9,275.2h-13.6c-3.3,0-6-2.7-6-6v-13.6c0-3.3,2.7-6,6-6h13.6c3.3,0,6,2.7,6,6v13.6
			C221.9,272.5,219.2,275.2,215.9,275.2z"/>
		<path class="st2" d="M267.1,275.2h-13.6c-3.3,0-6-2.7-6-6v-13.6c0-3.3,2.7-6,6-6h13.6c3.3,0,6,2.7,6,6v13.6
			C273.1,272.5,270.4,275.2,267.1,275.2z"/>
		<path class="st2" d="M318.3,275.2h-13.6c-3.3,0-6-2.7-6-6v-13.6c0-3.3,2.7-6,6-6h13.6c3.3,0,6,2.7,6,6v13.6
			C324.3,272.5,321.6,275.2,318.3,275.2z"/>
		<path class="st2" d="M369.5,275.2h-13.6c-3.3,0-6-2.7-6-6v-13.6c0-3.3,2.7-6,6-6h13.6c3.3,0,6,2.7,6,6v13.6
			C375.5,272.5,372.8,275.2,369.5,275.2z"/>
		<path class="st2" d="M420.7,275.2h-13.6c-3.3,0-6-2.7-6-6v-13.6c0-3.3,2.7-6,6-6h13.6c3.3,0,6,2.7,6,6v13.6
			C426.7,272.5,424,275.2,420.7,275.2z"/>
		<path class="st2" d="M164.7,326.4h-13.6c-3.3,0-6-2.7-6-6v-13.6c0-3.3,2.7-6,6-6h13.6c3.3,0,6,2.7,6,6v13.6
			C170.7,323.7,168,326.4,164.7,326.4z"/>
		<path class="st2" d="M215.9,326.4h-13.6c-3.3,0-6-2.7-6-6v-13.6c0-3.3,2.7-6,6-6h13.6c3.3,0,6,2.7,6,6v13.6
			C221.9,323.7,219.2,326.4,215.9,326.4z"/>
		<path class="st2" d="M267.1,326.4h-13.6c-3.3,0-6-2.7-6-6v-13.6c0-3.3,2.7-6,6-6h13.6c3.3,0,6,2.7,6,6v13.6
			C273.1,323.7,270.4,326.4,267.1,326.4z"/>
		<path class="st2" d="M324.3,326.4v-19.2c0-3.5-2.9-6.4-6.4-6.4h-12.8c-3.5,0-6.4,2.9-6.4,6.4V320c0,3.5,2.9,6.4,6.4,6.4
			L324.3,326.4z"/>
		<path class="st2" d="M164.7,377.6h-13.6c-3.3,0-6-2.7-6-6V358c0-3.3,2.7-6,6-6h13.6c3.3,0,6,2.7,6,6v13.6
			C170.7,374.9,168,377.6,164.7,377.6z"/>
		<path class="st2" d="M215.9,377.6h-13.6c-3.3,0-6-2.7-6-6V358c0-3.3,2.7-6,6-6h13.6c3.3,0,6,2.7,6,6v13.6
			C221.9,374.9,219.2,377.6,215.9,377.6z"/>
		<path class="st2" d="M267.1,377.6h-13.6c-3.3,0-6-2.7-6-6V358c0-3.3,2.7-6,6-6h13.6c3.3,0,6,2.7,6,6v13.6
			C273.1,374.9,270.4,377.6,267.1,377.6z"/>
	</g>
	<path class="st3" d="M420.5,249.6h-13.2c-0.8,0-1.6,0.2-2.3,0.4c2.3,0.9,3.9,3.1,3.9,5.7V269c0,2.6-1.6,4.8-3.9,5.7
		c0.7,0.3,1.5,0.4,2.3,0.4h13.2c3.4,0,6.2-2.8,6.2-6.2v-13.2C426.7,252.4,423.9,249.6,420.5,249.6z"/>
	<path class="st3" d="M369.3,249.6H356c-0.8,0-1.6,0.2-2.3,0.4c2.3,0.9,3.9,3.1,3.9,5.7V269c0,2.6-1.6,4.8-3.9,5.7
		c0.7,0.3,1.5,0.4,2.3,0.4h13.2c3.4,0,6.2-2.8,6.2-6.2v-13.2C375.5,252.4,372.7,249.6,369.3,249.6z"/>
	<path class="st3" d="M318.1,249.6h-13.2c-0.8,0-1.6,0.2-2.3,0.4c2.3,0.9,3.9,3.1,3.9,5.7V269c0,2.6-1.6,4.8-3.9,5.7
		c0.7,0.3,1.5,0.4,2.3,0.4h13.2c3.4,0,6.2-2.8,6.2-6.2v-13.2C324.3,252.4,321.5,249.6,318.1,249.6z"/>
	<path class="st3" d="M266.9,249.6h-13.2c-0.8,0-1.6,0.2-2.3,0.4c2.3,0.9,3.9,3.1,3.9,5.7V269c0,2.6-1.6,4.8-3.9,5.7
		c0.7,0.3,1.5,0.4,2.3,0.4h13.2c3.4,0,6.2-2.8,6.2-6.2v-13.2C273.1,252.4,270.3,249.6,266.9,249.6z"/>
	<path class="st3" d="M215.7,249.6h-13.2c-0.8,0-1.6,0.2-2.3,0.4c2.3,0.9,3.9,3.1,3.9,5.7V269c0,2.6-1.6,4.8-3.9,5.7
		c0.7,0.3,1.5,0.4,2.3,0.4h13.2c3.4,0,6.2-2.8,6.2-6.2v-13.2C221.9,252.4,219.1,249.6,215.7,249.6z"/>
	<path class="st3" d="M164.5,249.6h-13.2c-0.8,0-1.6,0.2-2.3,0.4c2.3,0.9,3.9,3.1,3.9,5.7V269c0,2.6-1.6,4.8-3.9,5.7
		c0.7,0.3,1.5,0.4,2.3,0.4h13.2c3.4,0,6.2-2.8,6.2-6.2v-13.2C170.7,252.4,167.9,249.6,164.5,249.6z"/>
	<path class="st3" d="M164.5,300.8h-13.2c-0.8,0-1.6,0.2-2.3,0.4c2.3,0.9,3.9,3.1,3.9,5.7v13.2c0,2.6-1.6,4.8-3.9,5.7
		c0.7,0.3,1.5,0.4,2.3,0.4h13.2c3.4,0,6.2-2.8,6.2-6.2V307C170.7,303.6,167.9,300.8,164.5,300.8L164.5,300.8z"/>
	<path class="st3" d="M164.5,352h-13.2c-0.8,0-1.6,0.2-2.3,0.4c2.3,0.9,3.9,3.1,3.9,5.7v13.2c0,2.6-1.6,4.8-3.9,5.7
		c0.7,0.3,1.5,0.4,2.3,0.4h13.2c3.4,0,6.2-2.8,6.2-6.2v-13.2C170.7,354.8,167.9,352,164.5,352L164.5,352z"/>
	<path class="st3" d="M215.7,300.8h-13.2c-0.8,0-1.6,0.2-2.3,0.4c2.3,0.9,3.9,3.1,3.9,5.7v13.2c0,2.6-1.6,4.8-3.9,5.7
		c0.7,0.3,1.5,0.4,2.3,0.4h13.2c3.4,0,6.2-2.8,6.2-6.2V307C221.9,303.6,219.1,300.8,215.7,300.8L215.7,300.8z"/>
	<path class="st3" d="M215.7,352h-13.2c-0.8,0-1.6,0.2-2.3,0.4c2.3,0.9,3.9,3.1,3.9,5.7v13.2c0,2.6-1.6,4.8-3.9,5.7
		c0.7,0.3,1.5,0.4,2.3,0.4h13.2c3.4,0,6.2-2.8,6.2-6.2v-13.2C221.9,354.8,219.1,352,215.7,352L215.7,352z"/>
	<path class="st3" d="M266.9,300.8h-13.2c-0.8,0-1.6,0.2-2.3,0.4c2.3,0.9,3.9,3.1,3.9,5.7v13.2c0,2.6-1.6,4.8-3.9,5.7
		c0.7,0.3,1.5,0.4,2.3,0.4h13.2c3.4,0,6.2-2.8,6.2-6.2V307C273.1,303.6,270.3,300.8,266.9,300.8L266.9,300.8z"/>
	<path class="st3" d="M324.3,326.4V307c0-3.4-2.8-6.2-6.2-6.2h-13.2c-0.8,0-1.6,0.2-2.3,0.4c2.3,0.9,3.9,3.1,3.9,5.7v13.2
		c0,2.6-1.6,4.8-3.9,5.7c0.7,0.3,1.5,0.4,2.3,0.4L324.3,326.4L324.3,326.4z"/>
	<path class="st3" d="M266.9,352h-13.2c-0.8,0-1.6,0.2-2.3,0.4c2.3,0.9,3.9,3.1,3.9,5.7v13.2c0,2.6-1.6,4.8-3.9,5.7
		c0.7,0.3,1.5,0.4,2.3,0.4h13.2c3.4,0,6.2-2.8,6.2-6.2v-13.2C273.1,354.8,270.3,352,266.9,352L266.9,352z"/>
	<path class="st0" d="M434.5,216.6v115v71.7h17.8v-71.7V224L434.5,216.6z"/>
	<path class="st4" d="M452.3,224v-64c0-14.1-11.5-25.6-25.6-25.6H145.1c-14.1,0-25.6,11.5-25.6,25.6v64H452.3z"/>
	<g>
		<g>
			<g>
				<path class="st5" d="M200.1,165.8h-16.7c-3.2,0-5.8-2.6-5.8-5.8s2.6-5.8,5.8-5.8h16.7c3.2,0,5.8,2.6,5.8,5.8
					S203.3,165.8,200.1,165.8z"/>
			</g>
			<g>
				<path class="st5" d="M241.1,165.8h-16.7c-3.2,0-5.8-2.6-5.8-5.8s2.6-5.8,5.8-5.8h16.7c3.2,0,5.8,2.6,5.8,5.8
					S244.3,165.8,241.1,165.8z"/>
			</g>
			<g>
				<path class="st5" d="M347.3,165.8h-16.7c-3.2,0-5.8-2.6-5.8-5.8s2.6-5.8,5.8-5.8h16.7c3.2,0,5.8,2.6,5.8,5.8
					S350.5,165.8,347.3,165.8z"/>
			</g>
			<g>
				<path class="st5" d="M388.3,165.8h-16.7c-3.2,0-5.8-2.6-5.8-5.8s2.6-5.8,5.8-5.8h16.7c3.2,0,5.8,2.6,5.8,5.8
					S391.5,165.8,388.3,165.8z"/>
			</g>
		</g>
	</g>
	<path class="st1" d="M228.3,156.8c0,8.8-7.2,16-16,16c-8.8,0-16-7.2-16-16v-32c0-8.8,7.2-16,16-16c8.8,0,16,7.2,16,16L228.3,156.8
		L228.3,156.8z"/>
	<path class="st1" d="M375.5,156.8c0,8.8-7.2,16-16,16s-16-7.2-16-16v-32c0-8.8,7.2-16,16-16s16,7.2,16,16L375.5,156.8L375.5,156.8z
		"/>
	<path class="st0" d="M359.5,108.8c-3.3,0-6.3,1-8.9,2.7c4.3,2.9,7.1,7.8,7.1,13.3v32c0,5.6-2.8,10.4-7.1,13.3
		c2.5,1.7,5.6,2.7,8.9,2.7c8.8,0,16-7.2,16-16v-32C375.5,116,368.3,108.8,359.5,108.8z"/>
	<path class="st0" d="M212.3,108.8c-3.3,0-6.3,1-8.9,2.7c4.3,2.9,7.1,7.8,7.1,13.3v32c0,5.6-2.8,10.4-7.1,13.3
		c2.5,1.7,5.6,2.7,8.9,2.7c8.8,0,16-7.2,16-16v-32C228.3,116,221.1,108.8,212.3,108.8L212.3,108.8z"/>
	<path class="st5" d="M426.7,134.4h-17.8c14.1,0,25.6,11.5,25.6,25.6v64h17.8v-64C452.3,145.9,440.8,134.4,426.7,134.4L426.7,134.4z
		"/>
	<path class="st5" d="M119.5,192.6h332.8v11.6H119.5L119.5,192.6z"/>
</g>
<g id="Livello_8" class="st6">
	<path d="M119.5,187.5"/>
</g>
<g id="Livello_10">
	<path class="st5" d="M122.2,200.3c0,0,79.6,7.7,120.9-12.9s37.3-52.9,37.3-52.9l-33,0.4l-84.8-1.5l-40.4,31.4L122.2,200.3z"/>
</g>
<g id="orologio">
	<circle class="st7" cx="381.9" cy="396.8" r="96"/>
	<circle class="st1" cx="381.9" cy="396.8" r="70.4"/>
	<g>
		<g>
			<path class="st2" d="M383.2,389.9c-3.1-0.6-5.2-3.6-4.6-6.8l6-31.4c0.6-3.1,3.6-5.2,6.8-4.6c3.1,0.6,5.2,3.6,4.6,6.8l-6,31.4
				C389.3,388.4,386.3,390.5,383.2,389.9z"/>
		</g>
	</g>
	<g>
		<g>
			<path class="st2" d="M412.2,408.4l-18.9-3.6c-3.1-0.6-5.2-3.6-4.6-6.8c0.6-3.1,3.6-5.2,6.8-4.6l18.9,3.6c3.1,0.6,5.2,3.6,4.6,6.8
				C418.4,407,415.4,409,412.2,408.4z"/>
		</g>
	</g>
	<path class="st8" d="M399.7,302.5c-2.9-0.6-5.9-1-8.8-1.2c47.2,13.5,77.1,61,67.8,110.1c-9.3,49.1-54.5,82.4-103.4,77.7
		c2.8,0.8,5.7,1.5,8.7,2.1c52.1,9.9,102.3-24.4,112.2-76.5S451.8,312.3,399.7,302.5z"/>
	<path class="st0" d="M395,327.6c-3-0.6-5.9-0.9-8.8-1.1c33.3,10.7,54.1,44.8,47.5,80.1s-38.5,59.3-73.4,57.2
		c2.8,0.9,5.7,1.6,8.6,2.2c38.2,7.2,75-17.9,82.3-56.1C458.3,371.7,433.2,334.9,395,327.6L395,327.6z"/>
	<circle class="st9" cx="381.9" cy="396.8" r="12.8"/>
</g>
<g id="cappello">
	<path class="st10" d="M247.3,68.8l15.5,61.5c6.5,25.7-34.9,50.9-77.2,61.6c-42.3,10.7-90.7,8-97.2-17.7l-15.5-61.5
		c-1.1-4.3,1.5-8.8,5.9-9.9l158.5-39.9C241.8,61.7,246.2,64.5,247.3,68.8z"/>
	<path class="st11" d="M247.3,68.8l15.5,61.5c6.5,25.7-34.9,50.9-77.2,61.6L158.1,82.8l79.3-19.9C241.8,61.7,246.2,64.5,247.3,68.8z
		"/>
	<g id="Livello_6" class="st12">
		<path class="st13" d="M77.9,132.6c0,0,92.7,10.4,122.2,54.8c0,0,41-12.8,55.8-33.2c10.5-14.4,6.8-23.9,6.8-23.9L246.3,66
			L70.9,105.7L77.9,132.6z"/>
	</g>
	<path class="st14" d="M290.9,38.9c0.8,3.3-0.5,6.9-3.2,8.7l-115.4,79.6c-0.9,0.6-1.8,1-2.7,1.2c-1,0.2-1.9,0.3-3,0.2L27.3,113.2
		l-3.7-14.9l115.4-79.6c0.9-0.6,1.8-1,2.7-1.2s1.9-0.3,3-0.2L284,32.7C287.3,33.1,290.1,35.6,290.9,38.9z"/>
	<g id="Livello_7" class="st15">
		<path d="M155,64.8c0,0,15.3-0.1,13.3,9.3c-1.1,5.3-8.5,6-8.5,6L155,64.8"/>
	</g>
	<path class="st9" d="M163.6,71c1.1,4.4-1.5,8.8-5.9,9.9L38.2,110.9l29.6,117.6l27,42.4c2.5,3.8,1.4,8.9-2.4,11.2
		c-3.9,2.5-8.9,1.4-11.2-2.4l-0.8-1.3c0.3,4-2.2,7.8-6.2,8.8c-4.4,1.1-8.8-1.5-9.9-5.9L20.4,107c-1.1-4.4,1.5-8.8,5.9-9.9l127.4-32
		C158.1,63.9,162.4,66.5,163.6,71z"/>
	<g id="Livello_4" class="st16">
		<path class="st17" d="M163.8,75.3c0,0,0.3,3.6-6.2,5.5c-8.6,2.6-119.4,30.1-119.4,30.1l29.6,117.6l27,42.4c0,0,4.1,7.7-2.4,11.2
			l-7.3-10.7l-18.6-29.3c0,0-3.5-5.8-5.7-13.8c-8.4-31.4-29.4-114.9-29.4-114.9s-0.5-5.3,6.4-7"/>
	</g>
	<g id="Livello_5">
		<path class="st18" d="M80.4,278.5L68,256l8.6,30.3c0,0,1.9-1.6,3.3-4C81.2,279.8,80.4,278.5,80.4,278.5z"/>
	</g>
</g>
</svg>
